<?xml version="1.0" encoding="UTF-8"?>
<svg width="24" height="24" viewBox="0 0 24 24" fill="none" xmlns="http://www.w3.org/2000/svg">
  <path d="M21 14L12.9 5.9C12.7 5.7 12.4 5.6 12.1 5.6C11.8 5.6 11.5 5.7 11.3 5.9L3.2 14C3.1 14.1 3 14.3 3 14.4C3 14.5 3 14.7 3.1 14.8L4.7 16.4C4.8 16.5 5 16.6 5.1 16.6C5.2 16.6 5.4 16.5 5.5 16.4L12 9.9L18.5 16.4C18.6 16.5 18.8 16.6 18.9 16.6C19 16.6 19.2 16.5 19.3 16.4L20.9 14.8C21 14.7 21.1 14.5 21.1 14.4C21.1 14.3 21 14.1 21 14Z" fill="currentColor"/>
  <path d="M12 4L8 8V2L12 4Z" fill="currentColor"/>
</svg>